<?xml version="1.0" encoding="UTF-8" standalone="no"?>
<!-- Svg Vector Icons : http://www.onlinewebfonts.com/icon -->

<svg
   xmlns:dc="http://purl.org/dc/elements/1.1/"
   xmlns:cc="http://creativecommons.org/ns#"
   xmlns:rdf="http://www.w3.org/1999/02/22-rdf-syntax-ns#"
   xmlns:svg="http://www.w3.org/2000/svg"
   xmlns="http://www.w3.org/2000/svg"
   xmlns:sodipodi="http://sodipodi.sourceforge.net/DTD/sodipodi-0.dtd"
   xmlns:inkscape="http://www.inkscape.org/namespaces/inkscape"
   version="1.1"
   x="0px"
   y="0px"
   viewBox="0 0 124 254"
   enable-background="new 0 0 1000 1000"
   xml:space="preserve"
   id="svg12"
   sodipodi:docname="female.svg"
   width="124"
   height="254"
   inkscape:version="0.92.4 (5da689c313, 2019-01-14)"><defs
   id="defs16" /><sodipodi:namedview
   pagecolor="#ffffff"
   bordercolor="#666666"
   borderopacity="1"
   objecttolerance="10"
   gridtolerance="10"
   guidetolerance="10"
   inkscape:pageopacity="0"
   inkscape:pageshadow="2"
   inkscape:window-width="1680"
   inkscape:window-height="997"
   id="namedview14"
   showgrid="false"
   inkscape:snap-global="true"
   inkscape:zoom="1.3350176"
   inkscape:cx="-228.25666"
   inkscape:cy="98.232324"
   inkscape:window-x="1592"
   inkscape:window-y="-8"
   inkscape:window-maximized="1"
   inkscape:current-layer="svg12" />
<metadata
   id="metadata2"> Svg Vector Icons : http://www.onlinewebfonts.com/icon <rdf:RDF><cc:Work
     rdf:about=""><dc:format>image/svg+xml</dc:format><dc:type
       rdf:resource="http://purl.org/dc/dcmitype/StillImage" /><dc:title></dc:title></cc:Work></rdf:RDF></metadata>

<g
   id="g5729"
   transform="matrix(0.40715203,0,0,0.42158207,-66.360091,24.086217)"
   style="fill:#a52a2a"><title
     id="title5722">Layer 1</title><g
     id="g1548"
     style="fill:#a52a2a"><g
       id="g1550"
       style="fill:#a52a2a"><path
         d="m 314.10034,76.266205 c 21.642,0 39.18692,-17.296207 39.18692,-38.633591 C 353.28726,16.298128 335.74234,-1 314.10034,-1 c -21.63888,0 -39.18576,17.298128 -39.18576,38.632614 0,21.337383 17.54688,38.633591 39.18576,38.633591 z"
         id="path1552"
         inkscape:connector-curvature="0"
         style="fill:#a52a2a" /><path
         d="M 314.10034,37.632614"
         id="path1554"
         inkscape:connector-curvature="0"
         style="fill:#a52a2a" /></g><path
       d="m 308.30624,321.35941 0.0157,133.80804 c 0,24.3147 -36.95017,24.3147 -36.95017,0 l -0.0156,-132.88223 h -49.61771 l 53.04502,-181.445 h -8.23536 l -30.8556,102.359 c -7.34424,22.32501 -38.43483,13.15365 -31.32169,-10.75269 l 34.25939,-111.20404 c 3.67211,-12.68156 19.94012,-35.162954 48.09793,-35.162954 h 25.96417 v 0 h 27.94434 c 27.90811,0 44.24856,22.670604 48.47201,35.162954 l 34.27313,111.09592 c 6.85462,23.8938 -23.99121,33.78918 -31.33545,10.49878 L 361.20044,140.84022 h -8.91687 l 53.47195,181.445 h -49.69604 v 133.06179 c 0,24.13514 -36.7966,24.01444 -36.7966,0 V 321.3594 h -10.95664 z"
       id="path1556"
       inkscape:connector-curvature="0"
       style="fill:#a52a2a" /></g></g></svg>