<?xml version="1.0" encoding="UTF-8" standalone="no"?>
<!-- Created with Inkscape (http://www.inkscape.org/) -->

<svg
   xmlns:dc="http://purl.org/dc/elements/1.1/"
   xmlns:cc="http://creativecommons.org/ns#"
   xmlns:rdf="http://www.w3.org/1999/02/22-rdf-syntax-ns#"
   xmlns:svg="http://www.w3.org/2000/svg"
   xmlns="http://www.w3.org/2000/svg"
   xmlns:sodipodi="http://sodipodi.sourceforge.net/DTD/sodipodi-0.dtd"
   xmlns:inkscape="http://www.inkscape.org/namespaces/inkscape"
   width="32"
   height="32"
   viewBox="0 0 31.999997 32.000001"
   version="1.1"
   id="svg18634"
   inkscape:version="0.92.4 (5da689c313, 2019-01-14)"
   sodipodi:docname="home.svg">
  <defs
     id="defs18628" />
  <sodipodi:namedview
     id="base"
     pagecolor="#ffffff"
     bordercolor="#666666"
     borderopacity="1.0"
     inkscape:pageopacity="0.0"
     inkscape:pageshadow="2"
     inkscape:zoom="7.9195959"
     inkscape:cx="41.122319"
     inkscape:cy="3.2024517"
     inkscape:document-units="px"
     inkscape:current-layer="layer1"
     showgrid="false"
     units="px"
     inkscape:snap-nodes="true"
     inkscape:snap-bbox="false"
     inkscape:snap-global="true"
     inkscape:bbox-paths="false"
     inkscape:snap-bbox-midpoints="false"
     inkscape:snap-bbox-edge-midpoints="true"
     inkscape:window-width="1680"
     inkscape:window-height="997"
     inkscape:window-x="1592"
     inkscape:window-y="-8"
     inkscape:window-maximized="1" />
  <metadata
     id="metadata18631">
    <rdf:RDF>
      <cc:Work
         rdf:about="">
        <dc:format>image/svg+xml</dc:format>
        <dc:type
           rdf:resource="http://purl.org/dc/dcmitype/StillImage" />
        <dc:title></dc:title>
      </cc:Work>
    </rdf:RDF>
  </metadata>
  <g
     inkscape:label="Layer 1"
     inkscape:groupmode="layer"
     id="layer1"
     transform="translate(0,-1090.5196)">
    <g
       id="g8173"
       transform="matrix(1.3482904,0,0,-1.3541878,19.315601,1097.1913)">
      <path
         d="m 0,0 h 3.158 v -3.16 z m 5.492,-8.049 -8.041,8.042 -8.04,-8.042 -1.231,1.114 c 0,0.294 0.113,0.588 0.337,0.812 L -3.36,2 c 0.448,0.451 1.176,0.451 1.624,0 L 6.387,-6.123 C 6.61,-6.347 6.722,-6.641 6.722,-6.935 Z M 3.195,-16.123 H -0.25 v 4.596 h -4.598 v -4.596 h -3.446 c -0.632,0 -1.147,0.514 -1.147,1.146 v 6.786 l 6.892,6.892 6.894,-6.892 v -6.786 c 0,-0.632 -0.514,-1.146 -1.15,-1.146"
         style="fill:#231f20;fill-opacity:1;fill-rule:nonzero;stroke:none"
         id="path8175"
         inkscape:connector-curvature="0" />
    </g>
  </g>
</svg>
