<?xml version="1.0" encoding="UTF-8" standalone="no"?>
<!-- Svg Vector Icons : http://www.onlinewebfonts.com/icon -->

<svg
   xmlns:dc="http://purl.org/dc/elements/1.1/"
   xmlns:cc="http://creativecommons.org/ns#"
   xmlns:rdf="http://www.w3.org/1999/02/22-rdf-syntax-ns#"
   xmlns:svg="http://www.w3.org/2000/svg"
   xmlns="http://www.w3.org/2000/svg"
   xmlns:sodipodi="http://sodipodi.sourceforge.net/DTD/sodipodi-0.dtd"
   xmlns:inkscape="http://www.inkscape.org/namespaces/inkscape"
   version="1.1"
   x="0px"
   y="0px"
   viewBox="0 0 124 254"
   enable-background="new 0 0 1000 1000"
   xml:space="preserve"
   id="svg12"
   sodipodi:docname="male.svg"
   width="124"
   height="254"
   inkscape:version="0.92.4 (5da689c313, 2019-01-14)"><defs
   id="defs16" /><sodipodi:namedview
   pagecolor="#ffffff"
   bordercolor="#666666"
   borderopacity="1"
   objecttolerance="10"
   gridtolerance="10"
   guidetolerance="10"
   inkscape:pageopacity="0"
   inkscape:pageshadow="2"
   inkscape:window-width="1680"
   inkscape:window-height="997"
   id="namedview14"
   showgrid="false"
   inkscape:snap-global="true"
   inkscape:zoom="1.3350176"
   inkscape:cx="-320.01575"
   inkscape:cy="-51.578433"
   inkscape:window-x="1592"
   inkscape:window-y="-8"
   inkscape:window-maximized="1"
   inkscape:current-layer="svg12" />
<metadata
   id="metadata2"> Svg Vector Icons : http://www.onlinewebfonts.com/icon <rdf:RDF><cc:Work
     rdf:about=""><dc:format>image/svg+xml</dc:format><dc:type
       rdf:resource="http://purl.org/dc/dcmitype/StillImage" /><dc:title></dc:title></cc:Work></rdf:RDF></metadata>

<g
   id="g5703"
   transform="matrix(0.5385652,0,0,0.4494718,-149.2372,13.871598)"
   style="fill:#0000cd"><title
     id="title5696">Layer 1</title><g
     id="g1517"
     style="fill:#0000cd"><g
       id="g1519"
       style="fill:#0000cd"><path
         id="path1521"
         d="m 395.69147,99.030273 c 17.39065,0 31.49139,-16.487427 31.49139,-36.823483 0,-20.335152 -14.10074,-36.822571 -31.49139,-36.822571 -17.39289,0 -31.49124,16.487419 -31.49124,36.822571 0,20.336056 14.09835,36.823483 31.49124,36.823483 z"
         inkscape:connector-curvature="0"
         style="fill:#0000cd;stroke:#000000" /><path
         id="path1523"
         d="M 395.69147,62.206791"
         inkscape:connector-curvature="0"
         style="fill:#0000cd;stroke:#000000" /></g><path
       id="path1525"
       d="m 361.99072,107.15674 c -22.30081,0 -40.23596,21.26664 -40.23596,47.79225 V 268.0047 c 0,21.97995 27.51114,21.97995 27.51114,0 V 164.62736 h 6.51276 v 283.0627 c 0,29.38767 36.63446,28.52301 36.63446,0 V 283.37582 h 6.30996 v 164.31424 c 0,28.52301 36.83579,29.38767 36.83579,0 v -283.0627 h 6.36008 V 268.0047 c 0,22.14945 27.36761,22.14853 27.31835,0 V 155.62528 c 0,-24.45968 -16.24465,-48.41805 -40.73034,-48.41805 l -66.51624,-0.0505 z"
       inkscape:connector-curvature="0"
       style="fill:#0000cd;stroke:#000000" /></g></g></svg>