<?xml version="1.0" encoding="UTF-8" standalone="no"?>
<!-- Svg Vector Icons : http://www.onlinewebfonts.com/icon -->

<svg
   xmlns:dc="http://purl.org/dc/elements/1.1/"
   xmlns:cc="http://creativecommons.org/ns#"
   xmlns:rdf="http://www.w3.org/1999/02/22-rdf-syntax-ns#"
   xmlns:svg="http://www.w3.org/2000/svg"
   xmlns="http://www.w3.org/2000/svg"
   xmlns:sodipodi="http://sodipodi.sourceforge.net/DTD/sodipodi-0.dtd"
   xmlns:inkscape="http://www.inkscape.org/namespaces/inkscape"
   version="1.1"
   x="0px"
   y="0px"
   viewBox="0 0 32 32"
   enable-background="new 0 0 1000 1000"
   xml:space="preserve"
   id="svg12"
   sodipodi:docname="Question.svg"
   width="32"
   height="32"
   inkscape:version="0.92.4 (5da689c313, 2019-01-14)"><defs
   id="defs16" /><sodipodi:namedview
   pagecolor="#ffffff"
   bordercolor="#666666"
   borderopacity="1"
   objecttolerance="10"
   gridtolerance="10"
   guidetolerance="10"
   inkscape:pageopacity="0"
   inkscape:pageshadow="2"
   inkscape:window-width="1680"
   inkscape:window-height="997"
   id="namedview14"
   showgrid="false"
   inkscape:snap-global="true"
   inkscape:zoom="15.104"
   inkscape:cx="19.897924"
   inkscape:cy="8.1566269"
   inkscape:window-x="1592"
   inkscape:window-y="-8"
   inkscape:window-maximized="1"
   inkscape:current-layer="svg12" />
<metadata
   id="metadata2"> Svg Vector Icons : http://www.onlinewebfonts.com/icon <rdf:RDF><cc:Work
     rdf:about=""><dc:format>image/svg+xml</dc:format><dc:type
       rdf:resource="http://purl.org/dc/dcmitype/StillImage" /><dc:title></dc:title></cc:Work></rdf:RDF></metadata>
<g
   id="g10"
   transform="matrix(3.0432547e-5,0,0,1.6581496e-5,16.368652,15.524295)"><g
     transform="matrix(0.1,0,0,-0.1,0,511)"
     id="g8"><path
       d="M 4496.9,4999.4 C 3558.6,4891.8 2711.5,4550.1 1981.4,3983.8 1759.1,3810.6 1344.9,3401.1 1164.7,3174.2 628.8,2500.2 305.9,1779.5 153.8,916 109.4,661 100,529.9 100,108.7 c 0,-421.2 9.4,-552.3 53.8,-807.3 152.1,-863.5 475,-1584.2 1010.9,-2258.1 180.2,-227 594.4,-636.5 816.7,-809.6 650.5,-505.5 1375.9,-823.7 2211.3,-971.1 437.6,-77.2 1177,-77.2 1614.6,0 833,147.4 1560.8,468 2211.3,971.1 222.3,173.1 636.5,582.6 816.7,809.6 533.5,671.6 858.8,1397 1010.9,2258.1 44.5,255.1 53.8,386.1 53.8,807.3 0,421.2 -9.4,552.2 -53.8,807.3 -152.1,863.5 -475,1584.2 -1010.9,2258.1 -180.2,227 -594.4,636.5 -816.7,809.6 -648.2,503.1 -1382.9,826 -2199.6,968.8 -332.3,56.2 -1015.6,82 -1322.1,46.9 z M 5753.5,3855.1 C 6521,3689 7143.5,3352 7693.4,2802.1 8404.8,2086.1 8772.1,1248.3 8807.2,249.1 8844.6,-853.1 8472.6,-1803.1 7693.4,-2584.7 6911.8,-3363.9 5961.8,-3736 4859.6,-3698.6 c -999.2,35.1 -1841.6,402.5 -2553,1113.9 -554.5,554.7 -884.5,1167.7 -1055.3,1951.6 -44.5,203.6 -51.5,311.2 -51.5,741.8 0,554.6 28.1,751.1 173.2,1195.8 304.2,926.6 1031.9,1773.7 1904.8,2213.7 353.3,177.8 835.4,327.6 1219.2,379.1 273.7,37.4 994.4,11.6 1256.5,-42.2 z"
       id="path4"
       inkscape:connector-curvature="0" /><path
       d="M 4681.7,2884 C 4576.4,2837.2 4443,2710.8 4384.5,2603.2 4333,2507.3 4333,2502.6 4333,1112.6 V -282.1 l 81.9,-159.1 c 44.5,-88.9 119.3,-189.5 163.8,-227 56.2,-44.4 500.8,-224.6 1310.4,-535.8 l 1228.5,-470.4 166.1,9.4 c 133.4,7 184.9,21.1 262.1,72.5 213,140.4 318.3,390.8 262.1,622.5 -32.8,142.7 -142.7,297.2 -252.7,360.4 -42.1,25.8 -521.8,215.3 -1064.7,423.6 l -987.4,379 -11.7,1156 c -11.7,1134.9 -11.7,1160.7 -63.2,1254.2 -58.5,112.3 -194.2,236.3 -301.8,280.8 -98.3,42.1 -348.7,39.8 -444.7,0 z"
       id="path6"
       inkscape:connector-curvature="0" /></g></g>
<g
   id="g4530"
   transform="matrix(0.00119296,0,0,6.5070409e-4,15.867116,15.108855)"><path
     id="path4528"
     d="m 412.2,586.1 c -7.4,12.6 -10,27.6 -7.1,42.3 0.3,1.2 13.8,131.7 -243.6,246.1 -30.5,13.6 -44.2,49.2 -30.7,79.7 10,22.5 32.1,35.9 55.2,35.9 8.2,0 16.5,-1.7 24.5,-5.2 C 420.4,891.6 492,778.1 515.2,699.5 588.3,733 698.6,805 717.6,938.1 c 4.7,33 35.3,55.9 68.3,51.3 33,-4.8 55.9,-35.3 51.2,-68.3 -26.9,-188.3 -173.3,-286 -270.5,-330.8 -0.1,-0.2 -0.2,-0.4 -0.3,-0.6 -12.8,-32 -19.8,-58.9 -23.1,-81.1 81,41.1 186.7,60.8 297.6,5.3 29.8,-14.9 41.9,-51.1 27,-81 -14.9,-29.8 -51.2,-41.9 -81,-27 -147.7,73.9 -271.6,-66.2 -276.7,-72 -13.8,-16.1 -34.9,-23.9 -55.9,-20.4 -89.7,15 -259.1,90.2 -259.2,268.3 0,33.3 27,60.4 60.4,60.4 33.4,0 60.4,-27 60.4,-60.4 0,-61.8 40.3,-99.2 80.2,-121.1 -1.5,34.8 2.4,76.4 16.2,125.4 z M 628.6,131.8 C 628.6,199 574.1,253.6 506.8,253.6 439.6,253.6 385,199.1 385,131.8 385.1,64.5 439.6,10 506.8,10 c 67.3,0 121.8,54.5 121.8,121.8 z"
     inkscape:connector-curvature="0" /></g><g
   id="g4546"
   transform="matrix(0.03572066,0,0,0.0255102,-2.4162775,2.8916096)"><path
     id="path4542"
     d="m 500,10 c -154,0 -280,126 -280,280 0,38.7 31.3,64.5 70,64.5 35.1,0 63,-21.3 68.1,-54.1 0.8,-4.4 0.8,-6.2 0.8,-9.3 0,-77.9 63.2,-141.1 141.1,-141.1 77.9,0 141.1,63.2 141.1,141.1 0,37.1 -13,67.4 -37.7,90.6 -14.8,13.9 -15.9,15.5 -37.2,29.8 -13.4,9.9 -26.7,19.2 -27.9,20.2 -26.2,21.9 -45.3,43.8 -62.3,68.4 -20.8,39.4 -34.5,67.8 -43.6,119 -1.9,16.8 -2.4,32 -2.4,32 3.3,35.3 33.4,58.6 70,58.6 36.6,0 66.7,-23.2 69.7,-58.6 0.3,-2 2.3,-16.7 3.6,-22.1 10.7,-60.4 46.2,-112.2 95.5,-144.6 3.4,-2.5 16.5,-13.4 19.2,-14.9 21.9,-17.5 14.6,-11 25.2,-21.3 36.1,-32.8 66.7,-95 66.7,-158 C 780,136 654,10 500,10 Z"
     inkscape:connector-curvature="0" /><path
     id="path4544"
     d="m 500,815 c -48.1,0 -87.5,39.4 -87.5,87.5 0,48.1 39.4,87.5 87.5,87.5 48.1,0 87.5,-39.4 87.5,-87.5 0,-48.1 -39.4,-87.5 -87.5,-87.5 z"
     inkscape:connector-curvature="0" /></g></svg>