<?xml version="1.0" encoding="UTF-8"?>
<!-- Generator: Adobe Illustrator 19.2.0, SVG Export Plug-In . SVG Version: 6.00 Build 0)  -->
<!DOCTYPE svg PUBLIC "-//W3C//DTD SVG 1.1//EN" "http://www.w3.org/Graphics/SVG/1.1/DTD/svg11.dtd">
<svg xmlns="http://www.w3.org/2000/svg" xmlns:xlink="http://www.w3.org/1999/xlink" xmlns:dc="http://purl.org/dc/elements/1.1/" xmlns:cc="http://creativecommons.org/ns#" xmlns:rdf="http://www.w3.org/1999/02/22-rdf-syntax-ns#" version="1.1" id="DESIGNS" x="0px" y="0px" width="32px" height="32px" viewBox="0 0 32 32" style="enable-background:new 0 0 32 32;" xml:space="preserve">
<title property="dc:title">to drink</title><desc property="dc:description">An icon for "drink" from the Hatch series on to [icon]. Downloaded from http://www.toicon.com/icons/hatch_drink by 127.0.0.1 on 2017-07-10. Licensed CC-BY, see http://toicon.com/license/ for details.</desc>
<g>
	<path class="hatch_twee" d="M13.386,15h-1.414l5.079-5.079c0.06,0.454,0.125,0.867,0.198,1.217L13.386,15z M11.63,12.756   c-0.022,0.022-0.043,0.043-0.066,0.066L11.63,12.756z M16.386,4h-1.414l-1.643,1.643c-0.028,0.455-0.063,0.976-0.105,1.519   L16.386,4z M16.808,7.578c-0.037-0.456-0.07-0.901-0.098-1.316l-3.776,3.776c-0.103,0.759-0.224,1.394-0.363,1.777L16.808,7.578z    M18.946,13.439c-0.222-0.308-0.446-0.559-0.656-0.758L15.972,15h1.414L18.946,13.439z M10,28.972v1.414L13.386,27h-1.414   L10,28.972z M17.386,31L20,28.386V27h-0.028l-4,4H17.386z M11.972,31h1.414l4-4h-1.414L11.972,31z M20,30.972L19.972,31H20V30.972z   " style="fill: #FFC5BB;"/>
	<path class="hatch_een" d="M18.341,11.412c-0.309-0.981-0.623-4.28-0.753-7.611c0.091-0.067,0.175-0.144,0.24-0.24   c0.186-0.275,0.224-0.624,0.1-0.932l-0.4-1C17.377,1.249,17.009,1,16.6,1h-3.333c-0.453,0-0.849,0.305-0.966,0.742l-0.267,1   c-0.08,0.3-0.016,0.621,0.173,0.867c0.059,0.077,0.143,0.124,0.219,0.18c-0.132,3.317-0.364,6.648-0.767,7.623   C10.917,11.854,9,13.465,9,17v14c0,0.552,0.448,1,1,1h10c0.552,0,1-0.448,1-1V17C21,13.465,19.037,11.935,18.341,11.412z M13.267,2   H16.6L17,3h-4L13.267,2z M12.5,12c0.635-1.269,0.917-8,0.917-8h3.167c0,0,0.282,6.731,0.917,8c0.098,0.197,1.587,0.916,2.218,3   h-9.436C10.913,12.916,12.402,12.197,12.5,12z M20,31H10v-4h10V31z M20,26H10v-9c0-0.36,0.029-0.688,0.07-1h9.86   c0.041,0.312,0.07,0.64,0.07,1V26z" style="fill: #265AA5;"/>
</g>
<metadata><work rdf:about=""><format>image/svg+xml</format><type rdf:resource="http://purl.org/dc/dcmitype/StillImage"/><license rdf:resource="http://creativecommons.org/licenses/by/4.0/"/><attributionname>Carol Liao</attributionname><attributionurl>http://www.toicon.com/icons/hatch_drink</attributionurl></work></metadata></svg>
