<?xml version="1.0" encoding="UTF-8"?>
<!-- Generator: Adobe Illustrator 19.2.0, SVG Export Plug-In . SVG Version: 6.00 Build 0)  -->
<!DOCTYPE svg PUBLIC "-//W3C//DTD SVG 1.1//EN" "http://www.w3.org/Graphics/SVG/1.1/DTD/svg11.dtd">
<svg xmlns="http://www.w3.org/2000/svg" xmlns:xlink="http://www.w3.org/1999/xlink" xmlns:dc="http://purl.org/dc/elements/1.1/" xmlns:cc="http://creativecommons.org/ns#" xmlns:rdf="http://www.w3.org/1999/02/22-rdf-syntax-ns#" version="1.1" id="DESIGNS" x="0px" y="0px" width="32px" height="32px" viewBox="0 0 32 32" style="enable-background:new 0 0 32 32;" xml:space="preserve">
<title property="dc:title">to caffeinate</title><desc property="dc:description">An icon for "caffeinate" from the Hatch series on to [icon]. Downloaded from http://www.toicon.com/icons/hatch_caffeinate by 127.0.0.1 on 2017-07-10. Licensed CC-BY, see http://toicon.com/license/ for details.</desc>
<g>
	<path class="hatch_twee" d="M14.672,7l-6.787,6.787l-0.163-1.251L13.258,7H14.672z M13.144,12.529L18.672,7h-1.414l-9.075,9.075   l0.163,1.251l2.182-2.182C11.071,14.018,12.018,13.071,13.144,12.529z M10.047,18.212l-1.401,1.401l0.163,1.251l1.509-1.509   C10.187,18.991,10.098,18.606,10.047,18.212z M11.26,20.999l-2.153,2.153l0.163,1.251l2.695-2.695   C11.709,21.492,11.472,21.256,11.26,20.999z M17.354,12.319L22.672,7h-1.414l-5.051,5.047   C16.602,12.098,16.99,12.188,17.354,12.319z M9.258,7L7.261,8.998l0.163,1.251L10.672,7H9.258z M17.728,22.531L10.258,30h1.414   l10.727-10.727l0.212-1.626l-2.085,2.085C19.974,20.965,18.961,21.978,17.728,22.531z M13.597,22.662L9.568,26.69l0.163,1.251   l4.993-4.993C14.333,22.893,13.958,22.795,13.597,22.662z M20.945,16.727l2.054-2.054l0.212-1.626l-2.55,2.55   C20.795,15.957,20.89,16.336,20.945,16.727z M18.998,13.26c0.257,0.213,0.494,0.45,0.709,0.705l3.892-3.892l0.212-1.626   L18.998,13.26z M19.672,30l1.527-1.527l0.212-1.626L18.258,30H19.672z M15.672,30l6.127-6.127l0.212-1.626L14.258,30H15.672z" style="fill: #FFC5BB;"/>
	<path class="hatch_een" d="M26,3h-2.382l-0.724-1.447C22.725,1.214,22.379,1,22,1H9C8.621,1,8.275,1.214,8.106,1.553L7.382,3H5   C4.448,3,4,3.448,4,4v2c0,0.552,0.448,1,1,1h1.065l2.943,23.129C9.073,30.627,9.498,31,10,31h11c0.502,0,0.927-0.373,0.992-0.871   L25.078,7H26c0.552,0,1-0.448,1-1V4C27,3.448,26.552,3,26,3z M21,30H10L7,7h17L21,30z M26,6H5V4h3l1-2h13l1,2h3V6z M20,17.5   c0,2.531-2.015,4.5-4.5,4.5S11,19.985,11,17.5s2.031-4.5,4.5-4.5S20,14.969,20,17.5z M10,17.5c0,3.033,2.467,5.5,5.5,5.5   s5.5-2.467,5.5-5.5S18.531,12,15.5,12S10,14.467,10,17.5z" style="fill: #265AA5;"/>
</g>
<metadata><work rdf:about=""><format>image/svg+xml</format><type rdf:resource="http://purl.org/dc/dcmitype/StillImage"/><license rdf:resource="http://creativecommons.org/licenses/by/4.0/"/><attributionname>Carol Liao</attributionname><attributionurl>http://www.toicon.com/icons/hatch_caffeinate</attributionurl></work></metadata></svg>
