<?xml version="1.0" encoding="UTF-8"?>
<!-- Generator: Adobe Illustrator 19.2.0, SVG Export Plug-In . SVG Version: 6.00 Build 0)  -->
<!DOCTYPE svg PUBLIC "-//W3C//DTD SVG 1.1//EN" "http://www.w3.org/Graphics/SVG/1.1/DTD/svg11.dtd">
<svg xmlns="http://www.w3.org/2000/svg" xmlns:xlink="http://www.w3.org/1999/xlink" xmlns:dc="http://purl.org/dc/elements/1.1/" xmlns:cc="http://creativecommons.org/ns#" xmlns:rdf="http://www.w3.org/1999/02/22-rdf-syntax-ns#" version="1.1" id="DESIGNS" x="0px" y="0px" width="32px" height="32px" viewBox="0 0 32 32" style="enable-background:new 0 0 32 32;" xml:space="preserve">
<title property="dc:title">to sip</title><desc property="dc:description">An icon for "sip" from the Hatch series on to [icon]. Downloaded from http://www.toicon.com/icons/hatch_sip by 127.0.0.1 on 2017-07-10. Licensed CC-BY, see http://toicon.com/license/ for details.</desc>
<g>
	<path class="hatch_twee" d="M26.382,10.911l3.529-3.529C29.558,9.159,28.159,10.558,26.382,10.911z M8.707,10H7.293l-1.247,1.247   l0.693,0.721L8.707,10z M26.918,6.375C26.871,6.49,26.81,6.6,26.721,6.693l-3.517,3.658c0.247,0.148,0.502,0.276,0.775,0.377   l5.757-5.757c-0.121-0.336-0.284-0.643-0.478-0.937L26.918,6.375z M20.707,10h-1.414l-7.365,7.365l0.693,0.721L20.707,10z    M12.707,10h-1.414l-3.287,3.287L8.7,14.008L12.707,10z M21.276,5h0.432l2.916-2.916C23.07,2.401,21.798,3.53,21.276,5z    M27.025,2.268L24.293,5h1.414l2.269-2.269C27.683,2.538,27.362,2.388,27.025,2.268z M16.707,10h-1.414l-5.326,5.326l0.693,0.721   L16.707,10z" style="fill: #FFC5BB;"/>
	<path class="hatch_een" d="M25.5,1c-2.512,0-4.632,1.695-5.287,4H1C0.599,5,0.237,5.239,0.08,5.608   c-0.157,0.369-0.079,0.796,0.199,1.085L13,19.905V31H8.5C8.224,31,8,31.224,8,31.5S8.224,32,8.5,32h10c0.276,0,0.5-0.224,0.5-0.5   S18.776,31,18.5,31H14V19.91l8.487-8.814C23.354,11.666,24.388,12,25.5,12c3.033,0,5.5-2.467,5.5-5.5S28.533,1,25.5,1z M26,6   l-2.885,3H3.885L1,6H26z M13.5,19l-8.654-9h17.308L13.5,19z M25.5,11c-0.843,0-1.622-0.246-2.296-0.649l3.517-3.658   c0.278-0.289,0.356-0.716,0.199-1.085C26.763,5.239,26.401,5,26,5h-4.724c0.62-1.744,2.268-3,4.224-3C27.985,2,30,4.015,30,6.5   S27.985,11,25.5,11z" style="fill: #265AA5;"/>
</g>
<metadata><work rdf:about=""><format>image/svg+xml</format><type rdf:resource="http://purl.org/dc/dcmitype/StillImage"/><license rdf:resource="http://creativecommons.org/licenses/by/4.0/"/><attributionname>Carol Liao</attributionname><attributionurl>http://www.toicon.com/icons/hatch_sip</attributionurl></work></metadata></svg>
