<?xml version="1.0" encoding="UTF-8" standalone="no"?>
<!-- Created with Inkscape (http://www.inkscape.org/) -->

<svg
   xmlns:dc="http://purl.org/dc/elements/1.1/"
   xmlns:cc="http://creativecommons.org/ns#"
   xmlns:rdf="http://www.w3.org/1999/02/22-rdf-syntax-ns#"
   xmlns:svg="http://www.w3.org/2000/svg"
   xmlns="http://www.w3.org/2000/svg"
   xmlns:sodipodi="http://sodipodi.sourceforge.net/DTD/sodipodi-0.dtd"
   xmlns:inkscape="http://www.inkscape.org/namespaces/inkscape"
   width="25"
   height="40"
   viewBox="0 0 6.6145832 10.583334"
   version="1.1"
   id="svg8"
   inkscape:version="0.92.4 (5da689c313, 2019-01-14)"
   sodipodi:docname="WineRed.svg">
  <defs
     id="defs2" />
  <sodipodi:namedview
     id="base"
     pagecolor="#ffffff"
     bordercolor="#666666"
     borderopacity="1.0"
     inkscape:pageopacity="0.0"
     inkscape:pageshadow="2"
     inkscape:zoom="2.8"
     inkscape:cx="-12.392507"
     inkscape:cy="-63.289795"
     inkscape:document-units="px"
     inkscape:current-layer="layer1"
     showgrid="false"
     units="px"
     fit-margin-top="5"
     fit-margin-left="5"
     fit-margin-right="5"
     fit-margin-bottom="5"
     inkscape:window-width="1600"
     inkscape:window-height="847"
     inkscape:window-x="-8"
     inkscape:window-y="-8"
     inkscape:window-maximized="1" />
  <metadata
     id="metadata5">
    <rdf:RDF>
      <cc:Work
         rdf:about="">
        <dc:format>image/svg+xml</dc:format>
        <dc:type
           rdf:resource="http://purl.org/dc/dcmitype/StillImage" />
        <dc:title></dc:title>
      </cc:Work>
    </rdf:RDF>
  </metadata>
  <g
     inkscape:label="Layer 1"
     inkscape:groupmode="layer"
     id="layer1"
     transform="translate(-171.97917,-98.940474)">
    <path
       style="opacity:1;fill:#8b0000;fill-opacity:1;stroke:#000000;stroke-width:0.50507629;stroke-miterlimit:4;stroke-dasharray:none;stroke-opacity:1"
       d=""
       id="path4578"
       inkscape:connector-curvature="0"
       transform="scale(0.26458333)" />
    <g
       id="g4603"
       transform="translate(6.3311013,-4.7247024)">
      <g
         style="fill:#add8e6"
         transform="matrix(0.26458333,0,0,0.26458333,164.85432,104.72351)"
         id="g4566">
	
	<path
   sodipodi:nodetypes="scsscsccssssssccscccsssc"
   inkscape:connector-curvature="0"
   class="hatch_een"
   d="M 23,13 C 23,9.114 22.101,2.165 22.063,1.871 21.998,1.373 21.574,1 21.071,1 H 9.929 C 9.424,1 8.998,1.377 8.936,1.878 8.898,2.188 8,9.523 8,13 c 0,4.233 3.101,7.7 7.005,7.973 C 15.005,20.983 15,30 15,30 h -3.5 c -0.276,0 -0.5,0.224 -0.5,0.5 0,0.276 0.224,0.5 0.5,0.5 h 8 C 19.776,31 20,30.776 20,30.5 20,30.224 19.776,30 19.5,30 H 16 C 16,30 15.995,20.983 15.995,20.973 19.899,20.7 23,17.233 23,13 Z M 9.929,2 h 11.143 m 0.909,10 C 21.992,12.349 22,12.688 22,13 22,16.866 19.09,20 15.5,20 11.91,20 9,16.866 9,13 9,12.698 9.009,12.357 9.022,12"
   style="fill:#add8e6"
   id="path4564" />

</g>
      <path
         transform="scale(0.26458333)"
         inkscape:connector-curvature="0"
         id="path4588"
         d="m 637.45982,415.68124 c -2.88954,-0.56066 -5.09983,-3.15282 -5.32103,-6.24035 -0.0255,-0.35561 -0.0368,-0.86674 -0.0251,-1.13585 l 0.0212,-0.4893 h 6.42737 6.42737 l 0.0381,0.14206 c 0.0584,0.21791 0.0459,1.02566 -0.0256,1.65728 -0.32761,2.89393 -2.28255,5.27569 -4.90435,5.97512 -0.63102,0.16834 -1.99669,0.21547 -2.638,0.091 z"
         style="opacity:1;fill:#8b0000;fill-opacity:1;stroke:none;stroke-width:0.12626907;stroke-miterlimit:4;stroke-dasharray:none;stroke-opacity:1" />
    </g>
  </g>
</svg>
